<?xml version="1.0" encoding="utf-8"?>
<svg viewBox="0 0 800 800" xmlns="http://www.w3.org/2000/svg">
  <path d="M 765 400 C 765 601.584 601.584 765 400 765 C 198.416 765 35 601.584 35 400 C 35 198.416 198.416 35 400 35 C 601.584 35 765 198.416 765 400 Z M 286.207 496.325 L 299.95 496.325 L 286.207 482.58 L 524.276 482.58 L 510.533 496.325 L 524.276 496.325 L 543.319 477.149 L 524.276 458.898 L 511.287 458.898 L 524.276 472.111 L 286.207 472.111 L 299.196 458.898 L 286.207 458.898 L 267.164 477.149 Z M 683.075 304.035 C 683.075 290.213 671.872 279.011 658.051 279.011 L 542.684 279.011 C 528.862 279.011 517.66 290.214 517.66 304.035 L 517.695 318.726 L 517.695 428.832 C 517.695 433.591 522.844 437.449 529.195 437.449 C 535.546 437.449 540.695 433.591 540.695 428.832 L 540.723 428.832 L 540.723 318.726 L 540.726 318.726 C 541.16 312.763 546.136 308.061 552.209 308.061 C 558.282 308.061 563.258 312.763 563.692 318.726 L 563.751 318.726 L 563.751 584.952 L 563.796 584.952 C 564.388 592.875 570.794 599.113 578.609 599.113 C 586.423 599.113 592.829 592.875 593.421 584.952 L 593.466 584.952 L 593.466 447.169 C 593.466 443.303 596.6 440.169 600.466 440.169 C 604.332 440.169 607.466 443.303 607.466 447.169 L 607.439 447.169 L 607.439 584.952 L 607.484 584.952 C 608.076 592.875 614.482 599.113 622.296 599.113 C 630.111 599.113 636.517 592.875 637.109 584.952 L 637.154 584.952 L 637.154 316.943 C 638.005 311.424 642.775 307.198 648.533 307.198 C 654.892 307.198 660.047 312.353 660.047 318.712 C 660.047 318.717 660.047 428.827 660.047 428.832 C 660.055 433.592 665.207 437.449 671.561 437.449 C 677.915 437.449 683.067 433.592 683.075 428.832 Z M 599.589 200.28 C 580.736 200.28 565.453 215.563 565.453 234.416 C 565.453 253.269 580.736 268.552 599.589 268.552 C 618.442 268.552 633.725 253.269 633.725 234.416 C 633.725 215.563 618.442 200.28 599.589 200.28 Z M 291.96 304.035 C 291.96 290.213 280.757 279.011 266.936 279.011 L 151.208 279.011 C 137.386 279.011 126.184 290.214 126.184 304.035 L 126.173 318.726 L 126.58 428.832 C 126.58 433.591 131.729 437.449 138.08 437.449 C 144.431 437.449 149.58 433.591 149.58 428.832 L 149.608 428.832 L 149.608 318.726 L 149.611 318.726 C 150.045 312.763 155.021 308.061 161.094 308.061 C 167.167 308.061 172.143 312.763 172.577 318.726 L 172.636 318.726 L 172.636 584.952 L 172.681 584.952 C 173.273 592.875 179.679 599.113 187.494 599.113 C 195.308 599.113 201.714 592.875 202.306 584.952 L 202.351 584.952 L 202.351 447.169 C 202.351 443.303 205.485 440.169 209.351 440.169 C 213.217 440.169 216.351 443.303 216.351 447.169 L 216.324 447.169 L 216.324 584.952 L 216.369 584.952 C 216.961 592.875 223.367 599.113 231.181 599.113 C 238.996 599.113 245.402 592.875 245.994 584.952 L 246.039 584.952 L 246.039 316.943 C 246.89 311.424 251.66 307.198 257.418 307.198 C 263.777 307.198 268.932 312.353 268.932 318.712 C 268.932 318.717 268.932 428.827 268.932 428.832 C 268.94 433.592 274.092 437.449 280.446 437.449 C 286.8 437.449 291.952 433.592 291.96 428.832 Z M 208.474 200.28 C 189.621 200.28 174.338 215.563 174.338 234.416 C 174.338 253.269 189.621 268.552 208.474 268.552 C 227.327 268.552 242.61 253.269 242.61 234.416 C 242.61 215.563 227.327 200.28 208.474 200.28 Z M 338.191 531.743 L 338.191 538.763 L 346.271 535.463 L 346.271 568.563 L 354.361 568.563 L 354.361 527.263 L 349.221 527.263 Z M 363.502 577.473 L 369.872 561.953 L 361.492 561.953 L 357.422 577.473 Z M 384.412 549.303 C 385.732 549.003 387.002 548.853 388.222 548.853 C 390.815 548.853 392.939 549.473 394.592 550.713 C 396.245 551.953 397.072 553.556 397.072 555.523 C 397.072 557.57 396.305 559.223 394.772 560.483 C 393.239 561.736 391.232 562.363 388.752 562.363 C 386.745 562.363 384.905 562.04 383.232 561.393 C 381.565 560.746 379.825 559.676 378.012 558.183 L 373.122 563.663 C 375.162 565.476 377.502 566.853 380.142 567.793 C 382.775 568.74 385.565 569.213 388.512 569.213 C 390.992 569.213 393.275 568.87 395.362 568.183 C 397.449 567.49 399.229 566.526 400.702 565.293 C 402.175 564.053 403.315 562.566 404.122 560.833 C 404.929 559.1 405.332 557.193 405.332 555.113 C 405.332 551.333 403.935 548.273 401.142 545.933 C 398.349 543.593 394.712 542.423 390.232 542.423 C 388.852 542.423 387.522 542.523 386.242 542.723 C 384.969 542.916 383.722 543.23 382.502 543.663 L 382.912 534.043 L 402.972 534.043 L 402.972 527.263 L 376.362 527.263 L 375.362 548.913 L 380.612 550.513 C 381.832 550 383.099 549.596 384.412 549.303 Z M 459.317 568.563 L 467.397 568.563 L 467.397 527.263 L 456.427 527.263 L 445.097 549.443 L 433.767 527.263 L 422.797 527.263 L 422.797 568.563 L 430.697 568.563 L 430.697 538.173 L 444.977 565.613 L 459.317 538.233 Z" style="fill: rgb(132, 98, 51);"/>
</svg>