<?xml version="1.0" encoding="utf-8"?>
<svg width="800px" height="800px" viewBox="0 0 800 800" xmlns="http://www.w3.org/2000/svg">
  <path d="M 800 400 C 800 620.915 620.915 800 400 800 C 179.085 800 0 620.915 0 400 C 0 179.085 179.085 0 400 0 C 620.915 0 800 179.085 800 400 Z M 292.556 194.953 L 292.556 248.984 L 323.468 248.984 L 323.468 214.512 C 323.468 207.23 329.369 201.328 336.646 201.328 L 341.196 201.328 C 348.478 201.328 354.38 207.23 354.38 214.512 L 354.38 248.984 L 445.625 248.984 L 445.625 214.512 C 445.625 207.23 451.527 201.328 458.804 201.328 L 463.354 201.328 C 470.628 201.328 476.532 207.23 476.532 214.512 L 476.532 248.984 L 507.444 248.984 L 507.444 194.953 C 507.444 177.894 493.618 164.067 476.558 164.067 L 323.442 164.067 C 306.382 164.067 292.556 177.894 292.556 194.953 Z M 400 61.796 C 375.891 61.796 356.344 81.344 356.344 105.452 C 356.344 129.561 375.891 149.109 400 149.109 C 424.114 149.109 443.656 129.561 443.656 105.452 C 443.656 81.344 424.114 61.796 400 61.796 Z M 110.765 560.142 L 110.765 614.173 L 141.677 614.173 L 141.677 579.7 C 141.677 572.419 147.579 566.517 154.855 566.517 L 159.406 566.517 C 166.687 566.517 172.589 572.419 172.589 579.7 L 172.589 614.173 L 263.835 614.173 L 263.835 579.7 C 263.835 572.419 269.736 566.517 277.013 566.517 L 281.563 566.517 C 288.837 566.517 294.742 572.419 294.742 579.7 L 294.742 614.173 L 325.654 614.173 L 325.654 560.142 C 325.654 543.083 311.827 529.256 294.767 529.256 L 141.651 529.256 C 124.592 529.256 110.765 543.083 110.765 560.142 Z M 218.209 426.984 C 194.101 426.984 174.553 446.532 174.553 470.641 C 174.553 494.749 194.101 514.297 218.209 514.297 C 242.323 514.297 261.866 494.749 261.866 470.641 C 261.866 446.532 242.323 426.984 218.209 426.984 Z M 474.346 560.142 L 474.346 614.173 L 505.258 614.173 L 505.258 579.7 C 505.258 572.419 511.16 566.517 518.437 566.517 L 522.987 566.517 C 530.269 566.517 536.17 572.419 536.17 579.7 L 536.17 614.173 L 627.416 614.173 L 627.416 579.7 C 627.416 572.419 633.318 566.517 640.594 566.517 L 645.145 566.517 C 652.419 566.517 658.323 572.419 658.323 579.7 L 658.323 614.173 L 689.235 614.173 L 689.235 560.142 C 689.235 543.083 675.408 529.256 658.349 529.256 L 505.233 529.256 C 488.173 529.256 474.346 543.083 474.346 560.142 Z M 581.791 426.984 C 557.682 426.984 538.134 446.532 538.134 470.641 C 538.134 494.749 557.682 514.297 581.791 514.297 C 605.904 514.297 625.447 494.749 625.447 470.641 C 625.447 446.532 605.904 426.984 581.791 426.984 Z M 402.718 401.615 C 409.93 401.615 415.773 393.77 415.773 384.09 L 415.773 365.775 C 415.773 356.098 409.93 348.251 402.718 348.251 C 395.509 348.251 389.661 356.096 389.661 365.775 L 389.661 384.09 C 389.661 393.77 395.509 401.618 402.718 401.615 Z M 402.718 317.349 C 409.93 317.349 415.773 309.504 415.773 299.824 L 415.773 281.509 C 415.773 271.832 409.93 263.984 402.718 263.984 C 395.509 263.984 389.661 271.829 389.661 281.509 L 389.661 299.824 C 389.661 309.504 395.509 317.351 402.718 317.349 Z M 293.455 508.168 C 298.553 513.266 308.233 511.85 315.077 505.005 L 328.026 492.054 C 334.871 485.212 336.287 475.53 331.189 470.431 C 326.09 465.333 316.408 466.747 309.563 473.592 L 296.612 486.543 C 289.767 493.388 288.354 503.07 293.455 508.168 Z M 353.036 448.584 C 358.134 453.682 367.814 452.266 374.659 445.421 L 387.61 432.47 C 394.452 425.625 395.868 415.946 390.77 410.848 C 385.672 405.747 375.99 407.163 369.145 414.008 L 356.194 426.959 C 349.351 433.804 347.935 443.486 353.036 448.584 Z M 412.39 432.47 L 425.338 445.421 C 432.183 452.266 441.863 453.68 446.961 448.584 C 452.062 443.486 450.649 433.804 443.804 426.959 L 430.853 414.008 C 424.008 407.163 414.326 405.747 409.227 410.848 C 404.129 415.946 405.545 425.625 412.39 432.47 Z M 471.972 492.057 L 484.922 505.008 C 491.767 511.853 501.447 513.266 506.545 508.168 C 511.646 503.072 510.233 493.39 503.388 486.545 L 490.437 473.594 C 483.592 466.749 473.91 465.333 468.811 470.434 C 463.713 475.532 465.129 485.212 471.972 492.057 Z" style="fill: rgb(132, 98, 51);"/>
</svg>