<svg xmlns="http://www.w3.org/2000/svg" xmlns:xlink="http://www.w3.org/1999/xlink" width="546.5" height="149" viewBox="0 0 546.5 149"><defs><clipPath id="a"><rect width="546.5" height="149" transform="translate(335 3244)" fill="#fff" stroke="#707070" stroke-width="1"/></clipPath><clipPath id="b"><rect width="487.034" height="349.562" fill="none"/></clipPath><clipPath id="c"><path d="M254.493-983.182l63.743,183.818L685.558-926.74l-63.743-183.818Z" transform="translate(-254.493 1110.558)" fill="none"/></clipPath></defs><g transform="translate(-335 -3244)" clip-path="url(#a)"><g transform="translate(457.383 3154.438)" opacity="0.21"><g clip-path="url(#b)"><g transform="translate(30.786 27.265)" clip-path="url(#c)"><g transform="translate(243.736 11.618)"><path d="M-322.21-439.687l-24.434-70.462a.271.271,0,0,0-.344-.166l-92.944,32.23-7.716-22.251,93.2-32.319-24.465-70.553c3.994-1.385,15.938-5.451,22.278-7.649L-299.955-447.4Z" transform="translate(447.647 610.858)" fill="#bc9053" fill-rule="evenodd"/></g><g transform="translate(0.207 57.296)"><path d="M-173.923-590.858a11.717,11.717,0,0,1-9-.531,11.811,11.811,0,0,1-5.456-15.733l80.066-165.053-125.6,43.554-7.716-22.252,153.157-53.11.337-.063a11.735,11.735,0,0,1,7.96.835,11.711,11.711,0,0,1,5.894,14.728l-.435,1-80.054,165.049,141.956-49.226L-61.889-813.163l22.254-7.717,52.881,152.5a11.824,11.824,0,0,1-7.212,15.121Z" transform="translate(241.632 820.88)" fill="#fff" fill-rule="evenodd"/></g><g transform="translate(75.755 329.844)"><path d="M0-23.449,6.79-25.8l12.425,15.36.1-.036L19.5-30.212l6.824-2.366L34.9-7.862,30.59-6.369,23.7-26.232l-.068.024L23.112-3.775,20.08-2.724,5.886-20.054l-.071.025L12.7-.166,8.571,1.267Z" transform="translate(0 32.578)" fill="#fff"/></g><g transform="translate(113.318 323.938)"><path d="M-33.023-37.7l-7.242-8.751-.338,11.38ZM-43.837-51.081l3.753-1.3L-21-31.314l-4.96,1.72L-30.2-34.46l-10.578,3.668-.246,6.419-4.855,1.684Z" transform="translate(45.879 52.383)" fill="#fff"/></g><g transform="translate(133.82 315.111)"><path d="M-33.743-12.741a5.593,5.593,0,0,0-2.473-.843,6.075,6.075,0,0,0-2.748.267,6.545,6.545,0,0,0-1.449.718,4.933,4.933,0,0,0-1.174,1.07,3.429,3.429,0,0,0-.65,1.4A3.078,3.078,0,0,0-42.1-8.439a2.919,2.919,0,0,0,.842,1.311,3.279,3.279,0,0,0,1.3.686,6.819,6.819,0,0,0,1.722.225c.645.011,1.348,0,2.112-.031.869-.012,1.779,0,2.728.034a9.8,9.8,0,0,1,2.757.491A6.683,6.683,0,0,1-28.209-4.3a6.588,6.588,0,0,1,1.723,2.8A8.271,8.271,0,0,1-26,2.226,7.611,7.611,0,0,1-27.079,5.36,8.719,8.719,0,0,1-29.4,7.8a12.48,12.48,0,0,1-3.247,1.675,13.384,13.384,0,0,1-4.96.724,9.5,9.5,0,0,1-4.634-1.348l2.086-4a6.635,6.635,0,0,0,3.083,1.159,7.094,7.094,0,0,0,3.2-.288,6.844,6.844,0,0,0,1.485-.734,4.32,4.32,0,0,0,1.2-1.138,3.816,3.816,0,0,0,.64-1.495,3.513,3.513,0,0,0-.19-1.829,2.947,2.947,0,0,0-1.01-1.468,4.226,4.226,0,0,0-1.594-.7,9.048,9.048,0,0,0-2.075-.2q-1.153.01-2.427.02A22.438,22.438,0,0,1-40.328-1.9a7.568,7.568,0,0,1-2.428-.6A6.487,6.487,0,0,1-44.87-3.976,7.2,7.2,0,0,1-46.432-6.7a6.82,6.82,0,0,1-.351-3.518,7.3,7.3,0,0,1,1.253-2.957,9.535,9.535,0,0,1,2.4-2.317,13.133,13.133,0,0,1,3.106-1.566,12.13,12.13,0,0,1,4-.646,9.782,9.782,0,0,1,4.013.839Z" transform="translate(46.879 17.701)" fill="#fff"/></g><g transform="translate(153.348 308.339)"><path d="M-33.743-12.741a5.593,5.593,0,0,0-2.473-.843,6.075,6.075,0,0,0-2.748.267,6.539,6.539,0,0,0-1.449.718,4.933,4.933,0,0,0-1.174,1.07,3.429,3.429,0,0,0-.65,1.4A3.078,3.078,0,0,0-42.1-8.439a2.919,2.919,0,0,0,.842,1.311,3.279,3.279,0,0,0,1.3.686,6.819,6.819,0,0,0,1.722.225c.645.011,1.348,0,2.112-.031.866-.011,1.779,0,2.728.034a9.8,9.8,0,0,1,2.757.491A6.683,6.683,0,0,1-28.209-4.3a6.588,6.588,0,0,1,1.723,2.8A8.271,8.271,0,0,1-26,2.226,7.611,7.611,0,0,1-27.079,5.36,8.723,8.723,0,0,1-29.4,7.8a12.48,12.48,0,0,1-3.247,1.675,13.384,13.384,0,0,1-4.96.724,9.5,9.5,0,0,1-4.634-1.348l2.086-4a6.635,6.635,0,0,0,3.083,1.159,7.094,7.094,0,0,0,3.2-.288,6.844,6.844,0,0,0,1.485-.734,4.32,4.32,0,0,0,1.2-1.138,3.816,3.816,0,0,0,.64-1.495,3.513,3.513,0,0,0-.19-1.829,2.947,2.947,0,0,0-1.01-1.468,4.264,4.264,0,0,0-1.594-.7,9.175,9.175,0,0,0-2.075-.2q-1.153.01-2.427.02A22.438,22.438,0,0,1-40.328-1.9a7.624,7.624,0,0,1-2.431-.6A6.522,6.522,0,0,1-44.87-3.976,7.2,7.2,0,0,1-46.432-6.7a6.817,6.817,0,0,1-.351-3.518,7.3,7.3,0,0,1,1.253-2.957,9.535,9.535,0,0,1,2.4-2.317,13.133,13.133,0,0,1,3.106-1.566,12.13,12.13,0,0,1,4-.646,9.782,9.782,0,0,1,4.013.839Z" transform="translate(46.88 17.701)" fill="#fff"/></g><g transform="translate(172.01 304.089)"><path d="M0-3.868,4.343-5.374l8.571,24.716L8.571,20.848Z" transform="translate(0 5.374)" fill="#fff"/></g><g transform="translate(181.836 296.582)"><path d="M0-14.4,16.161-20l1.331,3.839-11.818,4.1,2.18,6.286,11.2-3.883,1.283,3.7L9.136-2.078l2.421,6.983L24,.592,25.352,4.5,8.571,10.32Z" transform="translate(0 20)" fill="#fff"/></g><g transform="translate(202.906 289.419)"><path d="M0-14.027l15.747-5.461,1.331,3.838-11.4,3.955L8.023-4.922l10.75-3.728,1.284,3.7L9.306-1.219l3.607,10.4L8.571,10.689Z" transform="translate(0 19.488)" fill="#fff"/></g><g transform="translate(230.134 282.577)"><path d="M-40.122-89.662l-3.516,1.219-12.1-34.905,3.516-1.219Z" transform="translate(55.742 124.567)" fill="#bc9053"/></g><g transform="translate(247.526 275.464)"><path d="M-29.873-60.24l3.892-1.35a15.041,15.041,0,0,0,1.751-.743,6.143,6.143,0,0,0,1.6-1.122,3.682,3.682,0,0,0,.957-1.579,3.448,3.448,0,0,0-.143-2.143,3.055,3.055,0,0,0-2.255-2.268,8.5,8.5,0,0,0-4.226.606l-4.065,1.41Zm-3.8-10.96,3.858-1.338a5.683,5.683,0,0,0,3.006-2.02,3.115,3.115,0,0,0,.276-2.872A2.693,2.693,0,0,0-28.526-79.4a7.812,7.812,0,0,0-3.893.569L-35.9-77.622ZM-41.5-79.748l9.51-3.3a12.035,12.035,0,0,1,2.841-.611,7.353,7.353,0,0,1,2.768.249,6.109,6.109,0,0,1,2.378,1.349,6.182,6.182,0,0,1,1.645,2.632,5.391,5.391,0,0,1,.026,3.862,6.879,6.879,0,0,1-2.389,3.022l.024.068a6.742,6.742,0,0,1,4.423.5,5.793,5.793,0,0,1,2.874,3.5,7.142,7.142,0,0,1,.387,3.677,6.769,6.769,0,0,1-1.316,2.941,9.414,9.414,0,0,1-2.545,2.232,16.776,16.776,0,0,1-3.266,1.545l-8.787,3.047Z" transform="translate(41.502 83.692)" fill="#fff"/></g><g transform="translate(269.919 266.038)"><path d="M0-14.4,16.161-20l1.331,3.839-11.818,4.1,2.18,6.286,11.2-3.883,1.283,3.7L9.136-2.078l2.421,6.983L24,.592,25.352,4.5,8.571,10.32Z" transform="translate(0 20)" fill="#fff"/></g><g transform="translate(288.728 253.267)"><path d="M0-30.446l4.753-1.648L15.77-15.58l.068-.024L14.92-35.62,19.4-37.173,30.965-20.849l.068-.024L29.563-40.7l4.617-1.6L35.618-15.11l-4.2,1.458L19.268-30.2l-.068.024.708,20.518L15.7-8.2Z" transform="translate(0 42.299)" fill="#fff"/></g><g transform="translate(325.692 245.49)"><path d="M-64.379-40.174a10.871,10.871,0,0,1,.64,4.3,9.529,9.529,0,0,1-1.009,3.771,9.578,9.578,0,0,1-2.427,3.012,11.527,11.527,0,0,1-3.657,2.03,11.518,11.518,0,0,1-4.131.671,9.846,9.846,0,0,1-3.791-.856,9.232,9.232,0,0,1-3.124-2.338,11.086,11.086,0,0,1-2.141-3.777L-89.442-49l4.34-1.505,5.362,15.464a9.006,9.006,0,0,0,1.022,2.051,5.521,5.521,0,0,0,1.571,1.585,5.013,5.013,0,0,0,2.162.78A6.156,6.156,0,0,0-72.2-31.01a6.158,6.158,0,0,0,2.42-1.423,5.042,5.042,0,0,0,1.215-1.951,5.573,5.573,0,0,0,.253-2.217,9.01,9.01,0,0,0-.47-2.243l-5.362-15.464,4.343-1.506Z" transform="translate(89.442 55.814)" fill="#fff"/></g><g transform="translate(351.365 239.673)"><path d="M-33.74-12.741a5.57,5.57,0,0,0-2.473-.843,6.075,6.075,0,0,0-2.745.266,6.522,6.522,0,0,0-1.449.718,4.952,4.952,0,0,0-1.177,1.072,3.458,3.458,0,0,0-.65,1.4,3.078,3.078,0,0,0,.141,1.687,2.948,2.948,0,0,0,.842,1.311,3.313,3.313,0,0,0,1.3.686,6.889,6.889,0,0,0,1.722.225c.645.011,1.348,0,2.112-.031.869-.012,1.779,0,2.731.033a9.784,9.784,0,0,1,2.754.492A6.683,6.683,0,0,1-28.206-4.3a6.591,6.591,0,0,1,1.723,2.8A8.276,8.276,0,0,1-26,2.226,7.613,7.613,0,0,1-27.077,5.36,8.722,8.722,0,0,1-29.393,7.8a12.451,12.451,0,0,1-3.244,1.674,13.364,13.364,0,0,1-4.96.724A9.48,9.48,0,0,1-42.23,8.853l2.083-4a6.656,6.656,0,0,0,3.083,1.159,7.094,7.094,0,0,0,3.2-.288,6.85,6.85,0,0,0,1.485-.734,4.357,4.357,0,0,0,1.207-1.139,3.886,3.886,0,0,0,.64-1.494A3.513,3.513,0,0,0-30.724.525a2.926,2.926,0,0,0-1.01-1.468,4.189,4.189,0,0,0-1.594-.7,9.047,9.047,0,0,0-2.075-.2c-.769.006-1.578.014-2.424.019a22.556,22.556,0,0,1-2.5-.073,7.609,7.609,0,0,1-2.428-.6,6.577,6.577,0,0,1-2.114-1.476A7.2,7.2,0,0,1-46.429-6.7a6.851,6.851,0,0,1-.351-3.518,7.339,7.339,0,0,1,1.253-2.957,9.568,9.568,0,0,1,2.4-2.317,13.144,13.144,0,0,1,3.106-1.566,12.13,12.13,0,0,1,4-.646A9.822,9.822,0,0,1-32-16.863Z" transform="translate(46.875 17.701)" fill="#fff"/></g><g transform="translate(367.961 230.955)"><path d="M-22.622-20.387-30.1-17.795l-1.331-3.838,19.294-6.691,1.331,3.839-7.476,2.592,7.238,20.875L-15.383.488Z" transform="translate(31.429 28.324)" fill="#fff"/></g><g transform="translate(397.563 224.518)"><path d="M-40.122-89.662l-3.516,1.219-12.1-34.905,3.516-1.219Z" transform="translate(55.742 124.567)" fill="#bc9053"/></g><g transform="translate(417.15 215.675)"><path d="M-14.425-42.975a11.191,11.191,0,0,0,1.868,3.437,8.962,8.962,0,0,0,2.721,2.284,8.352,8.352,0,0,0,3.314.983,8.762,8.762,0,0,0,3.629-.5A8.888,8.888,0,0,0,.283-38.631a8.362,8.362,0,0,0,2.011-2.83,9.015,9.015,0,0,0,.723-3.478,11.194,11.194,0,0,0-.661-3.855A10.842,10.842,0,0,0,.519-52.146a9.3,9.3,0,0,0-2.7-2.273,8.388,8.388,0,0,0-3.319-1,8.779,8.779,0,0,0-3.686.5,8.656,8.656,0,0,0-3.186,1.885A8.471,8.471,0,0,0-14.344-50.2a9.245,9.245,0,0,0-.712,3.455,10.833,10.833,0,0,0,.631,3.77m-4.719,1.636a14.764,14.764,0,0,1-.876-5.7,12.472,12.472,0,0,1,1.31-5.008,12.76,12.76,0,0,1,3.241-4.015,15.442,15.442,0,0,1,4.9-2.723A15.7,15.7,0,0,1-4.976-59.7,12.881,12.881,0,0,1,.086-58.565,12.279,12.279,0,0,1,4.235-55.45a14.765,14.765,0,0,1,2.842,5.019,14.518,14.518,0,0,1,.85,5.627,12.82,12.82,0,0,1-1.311,5.069A13.061,13.061,0,0,1,3.381-35.6a15.011,15.011,0,0,1-4.94,2.786,14.767,14.767,0,0,1-5.553.853,12.949,12.949,0,0,1-5.069-1.257,13.039,13.039,0,0,1-4.148-3.176,14.517,14.517,0,0,1-2.816-4.945" transform="translate(20.04 59.706)" fill="#fff"/></g><g transform="translate(444.226 207.446)"><path d="M-28.557-30.772a13.392,13.392,0,0,0,1.979-.864,5.886,5.886,0,0,0,1.53-1.153,3.341,3.341,0,0,0,.822-1.519,3.479,3.479,0,0,0-.178-1.969,3.313,3.313,0,0,0-1.061-1.606,3.3,3.3,0,0,0-1.556-.654,5.275,5.275,0,0,0-1.867.08,16.442,16.442,0,0,0-1.988.553l-3.167,1.1,2.457,7.085ZM-39.674-39l7.963-2.761a18.178,18.178,0,0,1,3.921-.928,8.384,8.384,0,0,1,3.334.253,6.19,6.19,0,0,1,2.633,1.591,7.955,7.955,0,0,1,1.792,3.053,7.582,7.582,0,0,1,.441,3.715,6.55,6.55,0,0,1-1.27,2.963,9.387,9.387,0,0,1-2.584,2.286,17.66,17.66,0,0,1-3.521,1.652l-3.34,1.158,3.546,10.226L-31.1-14.285Z" transform="translate(39.674 42.752)" fill="#fff"/></g><g transform="translate(473.86 191.793)"><path d="M0-23.449,6.79-25.8l12.425,15.36.1-.036L19.5-30.212l6.824-2.366L34.9-7.862,30.59-6.369,23.7-26.232l-.068.024L23.112-3.775,20.08-2.724,5.886-20.054l-.071.025L12.7-.166,8.571,1.267Z" transform="translate(0 32.578)" fill="#fff"/></g><g transform="translate(511.423 185.888)"><path d="M-33.023-37.7l-7.242-8.751-.338,11.38ZM-43.837-51.081l3.753-1.3L-21-31.314l-4.96,1.72L-30.2-34.46l-10.578,3.668-.246,6.419-4.855,1.684Z" transform="translate(45.879 52.383)" fill="#fff"/></g><g transform="translate(537.496 176.846)"><path d="M-33.023-37.7l-7.242-8.751-.341,11.381ZM-43.837-51.081l3.753-1.3L-21-31.314l-4.96,1.72L-30.2-34.46l-10.578,3.668-.249,6.421-4.852,1.683Z" transform="translate(45.879 52.383)" fill="#fff"/></g><g transform="translate(551.434 167.331)"><path d="M-22.629-20.386l-7.479,2.593-1.331-3.838,19.3-6.692,1.331,3.838-7.479,2.593,7.239,20.875L-15.391.488Z" transform="translate(31.439 28.323)" fill="#fff"/></g><g transform="translate(440.366 37.861)"><path d="M-57.262-223.2l24.208-68.832L-75.3-277.384l-4.253-12.263,58.967-20.448,4.407,12.708L-40.689-228.7,3.12-243.89l4.329,12.484-60.3,20.912Z" transform="translate(79.554 310.095)" fill="#fff"/></g><g transform="translate(523.746 11.269)"><path d="M0-46.567,52.279-64.7l4.252,12.26L18.3-39.177l6.958,20.065L61.482-31.676l4.1,11.818L29.352-7.294,37.082,15,77.325,1.042l4.329,12.484L27.367,32.351Z" transform="translate(0 64.696)" fill="#fff"/></g><g transform="translate(602.886 -10.354)"><path d="M-95.858-96.206a42.981,42.981,0,0,0,5.864-2.535,18.25,18.25,0,0,0,4.825-3.546,11.173,11.173,0,0,0,2.743-4.883,10.776,10.776,0,0,0-.472-6.393,9.532,9.532,0,0,0-3.283-4.793A11.467,11.467,0,0,0-91-120.368a16.262,16.262,0,0,0-5.65.087,37.671,37.671,0,0,0-5.671,1.465l-12.711,4.408,7.693,22.183Zm-37.318-25.143,27.424-9.51a52.424,52.424,0,0,1,11.218-2.582,29.487,29.487,0,0,1,10.643.619,21.265,21.265,0,0,1,8.956,4.761,22.538,22.538,0,0,1,6.122,9.739q2.978,8.588,0,15.672t-10.68,11.882l33.208,27.7L-63.224-57.2-93.106-84.3l-10.252,3.555,11.6,33.441-14.048,4.871Z" transform="translate(133.176 133.66)" fill="#fff"/></g><g transform="translate(691.133 -44.597)"><path d="M-46.5-137.752a35.354,35.354,0,0,0,5.991,10.972,28.637,28.637,0,0,0,8.763,7.262,27.076,27.076,0,0,0,10.69,3.1,28.619,28.619,0,0,0,11.733-1.635,29.046,29.046,0,0,0,10.28-6,26.937,26.937,0,0,0,6.533-9.073,28.836,28.836,0,0,0,2.386-11.128,35.494,35.494,0,0,0-2.09-12.324A34.312,34.312,0,0,0,1.9-167.272,29.4,29.4,0,0,0-6.8-174.5,27.028,27.028,0,0,0-17.5-177.654a28.781,28.781,0,0,0-11.92,1.636,28.36,28.36,0,0,0-10.32,6.076,27.186,27.186,0,0,0-6.4,9.087A29.288,29.288,0,0,0-48.491-149.8,34.168,34.168,0,0,0-46.5-137.752m-15.272,5.3A46.8,46.8,0,0,1-64.53-150.67a39.863,39.863,0,0,1,4.307-16.041A41.277,41.277,0,0,1-49.707-179.6a50.615,50.615,0,0,1,15.881-8.753,51.468,51.468,0,0,1,18.061-3.017A41.819,41.819,0,0,1,.582-187.8a39.4,39.4,0,0,1,13.367,9.912,46.747,46.747,0,0,1,9.11,16.012,46.055,46.055,0,0,1,2.68,17.987,41.142,41.142,0,0,1-4.3,16.226A42.5,42.5,0,0,1,10.926-114.4a48.98,48.98,0,0,1-15.992,8.982,48.17,48.17,0,0,1-17.95,2.788,41.956,41.956,0,0,1-16.352-3.945,41.656,41.656,0,0,1-13.371-10.1,46.109,46.109,0,0,1-9.031-15.785" transform="translate(64.602 191.379)" fill="#fff"/></g><g transform="translate(592.458 82.934)"><path d="M0-57.887l14.045-4.87L25.1-30.877,62-43.672,50.942-75.552l14.045-4.87L92.353-1.5,78.308,3.367l-12.137-35L29.274-18.84l12.137,35-14.045,4.87Z" transform="translate(0 80.422)" fill="#bc9053"/></g><g transform="translate(685.313 51.236)"><path d="M-207.693-128.271a34.413,34.413,0,0,1,2.014,13.725,30.58,30.58,0,0,1-3.309,12.074,31.135,31.135,0,0,1-7.887,9.669,37.637,37.637,0,0,1-11.842,6.537,37.619,37.619,0,0,1-13.347,2.2A31.759,31.759,0,0,1-254.3-86.758a29.451,29.451,0,0,1-10.068-7.435,35.11,35.11,0,0,1-6.861-12.044l-17.316-49.936,14.045-4.87,17.124,49.381a28.464,28.464,0,0,0,3.27,6.546,17.79,17.79,0,0,0,5.061,5.049,16.119,16.119,0,0,0,6.966,2.455,20.071,20.071,0,0,0,9-1.248,20.076,20.076,0,0,0,7.837-4.59,16.172,16.172,0,0,0,3.957-6.243,17.888,17.888,0,0,0,.846-7.1,28.481,28.481,0,0,0-1.485-7.165l-17.124-49.381,14.045-4.87Z" transform="translate(288.549 178.207)" fill="#bc9053"/></g><g transform="translate(776.719 36.701)"><path d="M0-12.511l14.045-4.87L41.411,61.537l-14.045,4.87Z" transform="translate(0 17.381)" fill="#bc9053"/></g><g transform="translate(822.779 13.525)"><path d="M-109.116-40.65a18.073,18.073,0,0,0-7.979-2.666,19.941,19.941,0,0,0-8.868.892,21.545,21.545,0,0,0-4.694,2.313,15.964,15.964,0,0,0-3.8,3.441,11.088,11.088,0,0,0-2.126,4.485,9.734,9.734,0,0,0,.437,5.405,9.391,9.391,0,0,0,2.7,4.183,10.71,10.71,0,0,0,4.189,2.168,21.943,21.943,0,0,0,5.549.7q3.134.032,6.826-.12,4.216-.086,8.826.059a32.351,32.351,0,0,1,8.9,1.538,21.614,21.614,0,0,1,7.817,4.531,20.881,20.881,0,0,1,5.536,8.946A26.238,26.238,0,0,1-84.3,7.128a24.22,24.22,0,0,1-3.518,10.023A28.2,28.2,0,0,1-95.338,25a40.667,40.667,0,0,1-10.5,5.389,43.821,43.821,0,0,1-16.03,2.376,30.789,30.789,0,0,1-14.957-4.238l6.783-12.844a21.342,21.342,0,0,0,9.951,3.667,23.11,23.11,0,0,0,10.342-.968,22.66,22.66,0,0,0,4.8-2.351,14.056,14.056,0,0,0,3.912-3.664,12.293,12.293,0,0,0,2.09-4.78,11.172,11.172,0,0,0-.593-5.855,9.325,9.325,0,0,0-3.251-4.68,13.794,13.794,0,0,0-5.137-2.214,29.6,29.6,0,0,0-6.7-.608q-3.73.046-7.835.092a73.133,73.133,0,0,1-8.064-.2,24.909,24.909,0,0,1-7.837-1.9,21.044,21.044,0,0,1-6.808-4.7,22.729,22.729,0,0,1-5.012-8.69,21.627,21.627,0,0,1-1.09-11.234,23.531,23.531,0,0,1,4.087-9.472,30.972,30.972,0,0,1,7.78-7.442,42.789,42.789,0,0,1,10.052-5.047,39.749,39.749,0,0,1,12.941-2.114,31.63,31.63,0,0,1,12.962,2.623Z" transform="translate(151.595 56.475)" fill="#bc9053"/></g></g></g></g></g></svg>