<svg xmlns="http://www.w3.org/2000/svg" width="286.794" height="86.76" viewBox="0 0 286.794 86.76"><g transform="translate(-22.442 -16.47)"><path d="M132.72,74.272V49.4a.091.091,0,0,0-.09-.09H99.82V41.453h32.9v-24.9c1.409,0,5.617.024,7.856.024v57.7Z" fill="#846233" fill-rule="evenodd"/><path d="M26.366,74.292a3.929,3.929,0,0,1-2.779-6.705L66.854,24.325H22.516V16.47H76.581l.113.017a3.928,3.928,0,0,1,2.665,6.418l-.247.269L35.851,66.436H85.962V16.482h7.856V70.315a3.943,3.943,0,0,1-3.925,3.977Z" fill="#fff" fill-rule="evenodd"/><path d="M23.192,91.426h2.4l2.237,6.2h.037l2.213-6.2h2.409v8.724h-1.52V93.139h-.024l-2.616,7.011h-1.07l-2.579-7.011h-.024v7.011h-1.46Z" fill="#fff"/><path d="M37.172,91.426H38.5l3.71,8.724H40.457l-.8-2H35.92l-.779,2H33.427Zm1.947,5.4-1.326-3.548-1.35,3.548Z" fill="#fff"/><path d="M47.694,93.25a1.868,1.868,0,0,0-.687-.536,2.04,2.04,0,0,0-.894-.216,2.18,2.18,0,0,0-.535.068,1.625,1.625,0,0,0-.487.21,1.141,1.141,0,0,0-.359.369,1.031,1.031,0,0,0-.139.548.992.992,0,0,0,.121.506,1.112,1.112,0,0,0,.334.357,2.317,2.317,0,0,0,.518.259c.2.074.425.147.669.222q.412.135.857.308a3.3,3.3,0,0,1,.815.455,2.261,2.261,0,0,1,.608.715,2.2,2.2,0,0,1,.237,1.072,2.771,2.771,0,0,1-.255,1.226,2.535,2.535,0,0,1-.681.869,2.929,2.929,0,0,1-1,.518,4.189,4.189,0,0,1-1.205.172,4.484,4.484,0,0,1-1.642-.314,3.171,3.171,0,0,1-1.313-.931l1.094-1.035a2.2,2.2,0,0,0,.845.7,2.221,2.221,0,0,0,1.588.192,1.456,1.456,0,0,0,.505-.228,1.275,1.275,0,0,0,.365-.4,1.172,1.172,0,0,0,.139-.6.978.978,0,0,0-.158-.573,1.4,1.4,0,0,0-.426-.394,3.017,3.017,0,0,0-.632-.29l-.766-.259a7.288,7.288,0,0,1-.779-.3,2.562,2.562,0,0,1-.7-.456,2.189,2.189,0,0,1-.505-.7,2.4,2.4,0,0,1-.195-1.029,2.28,2.28,0,0,1,.274-1.145,2.426,2.426,0,0,1,.718-.795,3.146,3.146,0,0,1,1.009-.468,4.354,4.354,0,0,1,1.15-.155,4.025,4.025,0,0,1,1.332.235,3.246,3.246,0,0,1,1.174.7Z" fill="#fff"/><path d="M54.588,93.25a1.872,1.872,0,0,0-.688-.536,2.034,2.034,0,0,0-.894-.216,2.186,2.186,0,0,0-.535.068,1.647,1.647,0,0,0-.487.21,1.148,1.148,0,0,0-.358.369,1.031,1.031,0,0,0-.14.548.983.983,0,0,0,.122.506,1.1,1.1,0,0,0,.334.357,2.287,2.287,0,0,0,.517.259c.2.074.426.147.669.222q.414.135.857.308a3.3,3.3,0,0,1,.815.455,2.264,2.264,0,0,1,.609.715,2.2,2.2,0,0,1,.237,1.072,2.771,2.771,0,0,1-.256,1.226,2.521,2.521,0,0,1-.68.869,2.924,2.924,0,0,1-1,.518,4.184,4.184,0,0,1-1.205.172,4.484,4.484,0,0,1-1.642-.314,3.178,3.178,0,0,1-1.313-.931l1.1-1.035a2.2,2.2,0,0,0,.845.7,2.354,2.354,0,0,0,1.04.26,2.32,2.32,0,0,0,.547-.068,1.44,1.44,0,0,0,.505-.228,1.263,1.263,0,0,0,.365-.4,1.172,1.172,0,0,0,.14-.6.985.985,0,0,0-.158-.573,1.422,1.422,0,0,0-.426-.394,3.065,3.065,0,0,0-.632-.29l-.767-.259a7.193,7.193,0,0,1-.778-.3,2.567,2.567,0,0,1-.7-.456,2.2,2.2,0,0,1-.5-.7,2.4,2.4,0,0,1-.195-1.029,2.27,2.27,0,0,1,.274-1.145,2.415,2.415,0,0,1,.718-.795,3.136,3.136,0,0,1,1.009-.468,4.341,4.341,0,0,1,1.149-.155,4.03,4.03,0,0,1,1.333.235,3.242,3.242,0,0,1,1.173.7Z" fill="#fff"/><path d="M57.171,91.426h1.534v8.724H57.171Z" fill="#fff"/><path d="M60.64,91.426h5.705v1.355H62.173V95h3.952v1.306H62.173V98.77h4.391v1.38H60.64Z" fill="#fff"/><path d="M68.078,91.426h5.558v1.355H69.611v2.391H73.4v1.306H69.611v3.672H68.078Z" fill="#fff"/><path d="M79.11,90.909V103.23H77.869V90.909Z" fill="#846233"/><path d="M83.829,91.426h3.357a4.051,4.051,0,0,1,.961.117,2.456,2.456,0,0,1,.845.382,2.034,2.034,0,0,1,.6.684,2.075,2.075,0,0,1,.231,1.011,1.8,1.8,0,0,1-.414,1.219,2.289,2.289,0,0,1-1.083.69v.025a2.243,2.243,0,0,1,1.339.641,1.932,1.932,0,0,1,.523,1.417,2.382,2.382,0,0,1-.28,1.2,2.267,2.267,0,0,1-.736.783,3.118,3.118,0,0,1-1.046.424,5.537,5.537,0,0,1-1.2.13h-3.1Zm1.533,3.549h1.362a1.9,1.9,0,0,0,1.168-.308,1.039,1.039,0,0,0,.4-.875.9.9,0,0,0-.413-.838,2.607,2.607,0,0,0-1.29-.246H85.362Zm0,3.869h1.374a5.011,5.011,0,0,0,.633-.043A2.045,2.045,0,0,0,88,98.622a1.23,1.23,0,0,0,.474-.394,1.147,1.147,0,0,0,.189-.69,1.018,1.018,0,0,0-.463-.961,2.826,2.826,0,0,0-1.4-.271H85.362Z" fill="#fff"/><path d="M91.734,91.426h5.705v1.355H93.267V95H97.22v1.306H93.267V98.77h4.391v1.38H91.734Z" fill="#fff"/><path d="M98.373,91.426h1.679l1.667,6.408h.024l1.9-6.408h1.582l1.86,6.408h.025l1.7-6.408h1.63l-2.518,8.724h-1.484l-2.019-6.542h-.025l-2.019,6.542h-1.484Z" fill="#fff"/><path d="M118.355,96.946a3.643,3.643,0,0,1-.267,1.424,3.13,3.13,0,0,1-1.825,1.762,4.053,4.053,0,0,1-2.748,0,3.258,3.258,0,0,1-1.1-.684,3.08,3.08,0,0,1-.73-1.078,3.7,3.7,0,0,1-.262-1.424v-5.52h1.533v5.459a3.008,3.008,0,0,0,.1.758,1.873,1.873,0,0,0,.322.671,1.669,1.669,0,0,0,.6.48,2.373,2.373,0,0,0,1.837,0,1.669,1.669,0,0,0,.6-.48,1.856,1.856,0,0,0,.322-.671,3.009,3.009,0,0,0,.1-.758V91.426h1.532Z" fill="#fff"/><path d="M124.489,93.25a1.86,1.86,0,0,0-.687-.536,2.04,2.04,0,0,0-.894-.216,2.18,2.18,0,0,0-.535.068,1.647,1.647,0,0,0-.487.21,1.151,1.151,0,0,0-.359.369,1.031,1.031,0,0,0-.139.548.992.992,0,0,0,.121.506,1.1,1.1,0,0,0,.335.357,2.287,2.287,0,0,0,.517.259c.2.074.425.147.669.222q.413.135.857.308a3.3,3.3,0,0,1,.815.455,2.261,2.261,0,0,1,.608.715,2.2,2.2,0,0,1,.238,1.072,2.771,2.771,0,0,1-.256,1.226,2.535,2.535,0,0,1-.681.869,2.91,2.91,0,0,1-1,.518,4.189,4.189,0,0,1-1.205.172,4.484,4.484,0,0,1-1.642-.314,3.171,3.171,0,0,1-1.313-.931l1.094-1.035a2.2,2.2,0,0,0,.845.7,2.358,2.358,0,0,0,1.041.26,2.333,2.333,0,0,0,.547-.068,1.448,1.448,0,0,0,.5-.228,1.275,1.275,0,0,0,.365-.4,1.172,1.172,0,0,0,.139-.6.985.985,0,0,0-.157-.573,1.414,1.414,0,0,0-.427-.394,3.017,3.017,0,0,0-.632-.29l-.766-.259a7.288,7.288,0,0,1-.779-.3,2.562,2.562,0,0,1-.7-.456,2.2,2.2,0,0,1-.5-.7,2.418,2.418,0,0,1-.195-1.029,2.28,2.28,0,0,1,.274-1.145,2.437,2.437,0,0,1,.718-.795,3.146,3.146,0,0,1,1.009-.468,4.354,4.354,0,0,1,1.15-.155,4.025,4.025,0,0,1,1.332.235,3.238,3.238,0,0,1,1.174.7Z" fill="#fff"/><path d="M128.983,92.781h-2.64V91.426h6.812v1.355h-2.64v7.369h-1.532Z" fill="#fff"/><path d="M138.214,90.909V103.23h-1.241V90.909Z" fill="#846233"/><path d="M142.52,95.764a4.925,4.925,0,0,1,.347-1.892,4.147,4.147,0,0,1,.96-1.435,4.245,4.245,0,0,1,1.46-.912,5.152,5.152,0,0,1,1.843-.321,5.236,5.236,0,0,1,1.861.321,4.283,4.283,0,0,1,1.471.912,4.1,4.1,0,0,1,.967,1.435,4.925,4.925,0,0,1,.347,1.892,4.849,4.849,0,0,1-.347,1.866,4.277,4.277,0,0,1-.967,1.454,4.37,4.37,0,0,1-1.471.949,4.988,4.988,0,0,1-1.861.339,4.909,4.909,0,0,1-1.843-.339,4.269,4.269,0,0,1-2.42-2.4A4.849,4.849,0,0,1,142.52,95.764Zm1.666,0a3.737,3.737,0,0,0,.213,1.287,3.025,3.025,0,0,0,.608,1.017,2.788,2.788,0,0,0,.937.671,2.923,2.923,0,0,0,1.2.24,2.962,2.962,0,0,0,1.2-.24,2.763,2.763,0,0,0,.943-.671,3.025,3.025,0,0,0,.608-1.017,3.761,3.761,0,0,0,.213-1.287,3.647,3.647,0,0,0-.213-1.258,3.1,3.1,0,0,0-.6-1.01,2.81,2.81,0,0,0-.937-.678,2.929,2.929,0,0,0-1.216-.246,2.891,2.891,0,0,0-1.21.246,2.812,2.812,0,0,0-.93.678,3.081,3.081,0,0,0-.6,1.01A3.623,3.623,0,0,0,144.186,95.764Z" fill="#fff"/><path d="M153.267,91.426h2.81a6.013,6.013,0,0,1,1.338.136,2.765,2.765,0,0,1,1.022.444,2.061,2.061,0,0,1,.656.788,2.654,2.654,0,0,1,.231,1.158,2.536,2.536,0,0,1-.267,1.22,2.183,2.183,0,0,1-.724.8,3.141,3.141,0,0,1-1.064.437,5.879,5.879,0,0,1-1.29.136H154.8v3.61h-1.533Zm2.6,3.807a4.46,4.46,0,0,0,.718-.055,1.957,1.957,0,0,0,.608-.2,1.1,1.1,0,0,0,.425-.388,1.162,1.162,0,0,0,.159-.641,1.038,1.038,0,0,0-.578-1,1.768,1.768,0,0,0-.6-.178,5.328,5.328,0,0,0-.688-.043H154.8v2.5Z" fill="#fff"/><path d="M163.727,91.426h2.4l2.237,6.2h.037l2.213-6.2h2.409v8.724H171.5V93.139h-.024l-2.616,7.011h-1.07l-2.579-7.011h-.024v7.011h-1.46Z" fill="#fff"/><path d="M177.707,91.426h1.326l3.71,8.724h-1.751l-.8-2h-3.734l-.779,2h-1.714Zm1.947,5.4-1.326-3.548-1.35,3.548Z" fill="#fff"/><path d="M186.911,91.426h1.326l3.71,8.724H190.2l-.8-2h-3.734l-.779,2h-1.714Zm1.947,5.4-1.326-3.548-1.35,3.548Z" fill="#fff"/><path d="M193.751,92.781h-2.639V91.426h6.811v1.355h-2.639v7.369h-1.533Z" fill="#fff"/><path d="M168.521,66.2,183.67,47.155H168.756V42.826h20.817v4.486L174.344,66.279h15.465v4.407H168.521Z" fill="#fff"/><path d="M198.19,42.826h18.455v4.329h-13.5v7.083h12.789v4.171H203.148v7.87h14.206v4.407H198.19Z" fill="#fff"/><path d="M226.128,42.826h9.68a17.481,17.481,0,0,1,3.817.413,9.825,9.825,0,0,1,3.286,1.358,7.1,7.1,0,0,1,2.3,2.479,7.506,7.506,0,0,1,.866,3.738,7.116,7.116,0,0,1-1.712,4.939A8.62,8.62,0,0,1,239.7,58.33l7.437,12.356H241.16l-6.454-11.8h-3.62v11.8h-4.958Zm9.011,12a14.462,14.462,0,0,0,2.125-.157,6.143,6.143,0,0,0,1.908-.59,3.731,3.731,0,0,0,1.4-1.24,3.594,3.594,0,0,0,.55-2.066,3.179,3.179,0,0,0-.511-1.869,3.824,3.824,0,0,0-1.3-1.161,5.445,5.445,0,0,0-1.79-.59A12.559,12.559,0,0,0,235.572,47h-4.486v7.831Z" fill="#fff"/><path d="M253.476,56.678a15.606,15.606,0,0,1,1.121-6.041,13.285,13.285,0,0,1,3.109-4.584,13.771,13.771,0,0,1,4.722-2.912,16.888,16.888,0,0,1,5.962-1.023,17.162,17.162,0,0,1,6.02,1.023,13.946,13.946,0,0,1,4.762,2.912,13.126,13.126,0,0,1,3.128,4.584,15.587,15.587,0,0,1,1.122,6.041,15.366,15.366,0,0,1-1.122,5.961,13.728,13.728,0,0,1-3.128,4.643,14.2,14.2,0,0,1-4.762,3.03,16.33,16.33,0,0,1-6.02,1.082,16.071,16.071,0,0,1-5.962-1.082,13.744,13.744,0,0,1-7.831-7.673A15.384,15.384,0,0,1,253.476,56.678Zm5.391,0a11.792,11.792,0,0,0,.689,4.112,9.552,9.552,0,0,0,1.968,3.246,9.027,9.027,0,0,0,3.029,2.145,9.564,9.564,0,0,0,3.876.767,9.706,9.706,0,0,0,3.9-.767,8.969,8.969,0,0,0,3.049-2.145,9.568,9.568,0,0,0,1.968-3.246,11.816,11.816,0,0,0,.689-4.112,11.417,11.417,0,0,0-.689-4.014,9.786,9.786,0,0,0-1.948-3.227,9.014,9.014,0,0,0-3.029-2.164,9.6,9.6,0,0,0-3.936-.787,9.457,9.457,0,0,0-3.915.787,9.058,9.058,0,0,0-3.01,2.164,9.769,9.769,0,0,0-1.948,3.227A11.4,11.4,0,0,0,258.867,56.678Z" fill="#fff"/><path d="M211.53,74.306h4.958V85.56h13.025V74.306h4.958v27.86h-4.958V89.81H216.488v12.356H211.53Z" fill="#846233"/><path d="M266.739,91.935a11.481,11.481,0,0,1-.866,4.545,10.2,10.2,0,0,1-2.361,3.443,10.393,10.393,0,0,1-3.541,2.184,13.275,13.275,0,0,1-8.894,0,10.6,10.6,0,0,1-3.561-2.184,9.812,9.812,0,0,1-2.361-3.443,11.7,11.7,0,0,1-.846-4.545V74.306h4.958V91.738a9.5,9.5,0,0,0,.315,2.42,5.929,5.929,0,0,0,1.042,2.145,5.384,5.384,0,0,0,1.929,1.534,7.763,7.763,0,0,0,5.942,0,5.389,5.389,0,0,0,1.928-1.534,5.964,5.964,0,0,0,1.043-2.145,9.541,9.541,0,0,0,.315-2.42V74.306h4.958Z" fill="#846233"/><path d="M276.576,74.306h4.958v27.86h-4.958Z" fill="#846233"/><path d="M305.812,80.13a6.028,6.028,0,0,0-2.223-1.712,6.652,6.652,0,0,0-2.892-.689,7.12,7.12,0,0,0-1.731.217,5.257,5.257,0,0,0-1.575.669,3.688,3.688,0,0,0-1.16,1.181,3.246,3.246,0,0,0-.453,1.751,3.123,3.123,0,0,0,.394,1.613,3.568,3.568,0,0,0,1.082,1.141,7.382,7.382,0,0,0,1.672.827q.982.353,2.164.708,1.338.434,2.774.983a10.808,10.808,0,0,1,2.637,1.456,7.242,7.242,0,0,1,1.968,2.282,6.967,6.967,0,0,1,.767,3.424,8.721,8.721,0,0,1-.827,3.915,8.056,8.056,0,0,1-2.2,2.775,9.415,9.415,0,0,1-3.226,1.653,13.628,13.628,0,0,1-3.9.55,14.62,14.62,0,0,1-5.312-1,10.25,10.25,0,0,1-4.25-2.971l3.541-3.306a7.1,7.1,0,0,0,2.735,2.243,7.7,7.7,0,0,0,3.364.827,7.614,7.614,0,0,0,1.771-.216,4.737,4.737,0,0,0,1.633-.729,4.077,4.077,0,0,0,1.181-1.278,3.71,3.71,0,0,0,.452-1.909,3.11,3.11,0,0,0-.512-1.83,4.59,4.59,0,0,0-1.377-1.259,9.848,9.848,0,0,0-2.046-.924l-2.479-.827a24.319,24.319,0,0,1-2.519-.944A8.36,8.36,0,0,1,293,87.292a7.032,7.032,0,0,1-1.633-2.224,7.594,7.594,0,0,1-.63-3.285,7.194,7.194,0,0,1,.886-3.66,7.831,7.831,0,0,1,2.321-2.538,10.336,10.336,0,0,1,3.266-1.5,14.271,14.271,0,0,1,3.719-.492,13.283,13.283,0,0,1,4.309.747,10.551,10.551,0,0,1,3.8,2.243Z" fill="#846233"/></g></svg>