<?xml version="1.0" encoding="utf-8"?>
<svg viewBox="0 0 500 500" xmlns="http://www.w3.org/2000/svg">
  <path d="M 107.02 351.181 L 118.227 340.44 L 125.871 340.44 L 118.227 348.216 L 258.335 348.216 L 250.69 340.44 L 258.335 340.44 L 269.542 351.181 L 258.335 362.466 L 250.247 362.466 L 258.335 354.377 L 118.227 354.377 L 126.315 362.466 L 118.227 362.466 L 107.02 351.181 Z M 351.79 322.746 C 351.786 325.547 348.754 327.817 345.014 327.817 C 341.275 327.817 338.243 325.547 338.238 322.746 C 338.238 322.743 338.238 257.941 338.238 257.938 C 338.238 254.196 335.204 251.162 331.462 251.162 C 328.073 251.162 325.266 253.649 324.765 256.897 L 324.765 414.625 L 324.739 414.625 C 324.39 419.288 320.62 422.959 316.021 422.959 C 311.422 422.959 307.652 419.288 307.304 414.625 L 307.277 414.625 L 307.277 333.537 L 307.293 333.537 C 307.293 331.262 305.449 329.418 303.174 329.418 C 300.898 329.418 299.054 331.262 299.054 333.537 L 299.054 414.625 L 299.028 414.625 C 298.679 419.288 294.909 422.959 290.31 422.959 C 285.711 422.959 281.941 419.288 281.593 414.625 L 281.566 414.625 L 281.566 257.946 L 281.532 257.946 C 281.276 254.437 278.348 251.67 274.774 251.67 C 271.199 251.67 268.271 254.437 268.016 257.946 L 268.014 257.946 L 268.014 322.746 L 267.997 322.746 C 267.997 325.546 264.967 327.817 261.229 327.817 C 257.492 327.817 254.461 325.546 254.461 322.746 L 254.461 257.946 L 254.441 249.3 C 254.441 241.167 261.033 234.573 269.168 234.573 L 337.063 234.573 C 345.197 234.573 351.79 241.166 351.79 249.3 L 351.79 322.746 Z M 322.747 208.329 C 322.747 219.424 313.753 228.418 302.658 228.418 C 291.562 228.418 282.568 219.424 282.568 208.329 C 282.568 197.233 291.562 188.239 302.658 188.239 C 313.753 188.239 322.747 197.233 322.747 208.329 Z M 121.613 322.746 C 121.608 325.547 118.576 327.817 114.836 327.817 C 111.097 327.817 108.065 325.547 108.06 322.746 C 108.06 322.743 108.06 257.941 108.06 257.938 C 108.06 254.196 105.026 251.162 101.284 251.162 C 97.895 251.162 95.088 253.649 94.587 256.897 L 94.587 414.625 L 94.561 414.625 C 94.212 419.288 90.442 422.959 85.843 422.959 C 81.244 422.959 77.474 419.288 77.126 414.625 L 77.099 414.625 L 77.099 333.537 L 77.115 333.537 C 77.115 331.262 75.271 329.418 72.996 329.418 C 70.72 329.418 68.876 331.262 68.876 333.537 L 68.876 414.625 L 68.85 414.625 C 68.501 419.288 64.731 422.959 60.132 422.959 C 55.533 422.959 51.763 419.288 51.415 414.625 L 51.388 414.625 L 51.388 257.946 L 51.354 257.946 C 51.098 254.437 48.17 251.67 44.596 251.67 C 41.022 251.67 38.093 254.437 37.838 257.946 L 37.836 257.946 L 37.836 322.746 L 37.819 322.746 C 37.819 325.546 34.789 327.817 31.051 327.817 C 27.314 327.817 24.284 325.546 24.284 322.746 L 24.044 257.946 L 24.05 249.3 C 24.05 241.167 30.643 234.573 38.778 234.573 L 106.885 234.573 C 115.019 234.573 121.613 241.166 121.613 249.3 L 121.613 322.746 Z M 92.569 208.329 C 92.569 219.424 83.575 228.418 72.48 228.418 C 61.384 228.418 52.39 219.424 52.39 208.329 C 52.39 197.233 61.384 188.239 72.48 188.239 C 83.575 188.239 92.569 197.233 92.569 208.329 Z M 155.312 380.674 L 158.337 380.674 L 158.337 404.98 L 153.575 404.98 L 153.575 385.5 L 148.82 387.442 L 148.82 383.311 L 155.312 380.674 Z M 160.138 410.223 L 162.533 401.09 L 167.465 401.09 L 163.716 410.223 L 160.138 410.223 Z M 173.786 394.357 L 170.696 393.415 L 171.285 380.674 L 186.945 380.674 L 186.945 384.664 L 175.139 384.664 L 174.898 390.326 C 175.616 390.071 176.35 389.886 177.099 389.773 C 177.852 389.655 178.635 389.596 179.447 389.596 C 182.084 389.596 184.224 390.285 185.868 391.662 C 187.512 393.039 188.334 394.84 188.334 397.064 C 188.334 398.288 188.097 399.411 187.622 400.431 C 187.147 401.45 186.476 402.326 185.609 403.055 C 184.742 403.781 183.695 404.348 182.466 404.756 C 181.238 405.16 179.895 405.362 178.435 405.362 C 176.701 405.362 175.059 405.084 173.509 404.527 C 171.955 403.973 170.578 403.163 169.378 402.096 L 172.256 398.871 C 173.323 399.75 174.347 400.379 175.328 400.76 C 176.312 401.141 177.395 401.331 178.576 401.331 C 180.036 401.331 181.217 400.962 182.119 400.225 C 183.021 399.483 183.473 398.51 183.473 397.306 C 183.473 396.148 182.986 395.205 182.013 394.475 C 181.04 393.745 179.79 393.38 178.264 393.38 C 177.546 393.38 176.799 393.468 176.022 393.645 C 175.249 393.817 174.504 394.055 173.786 394.357 Z M 220.105 387.13 L 211.666 403.244 L 203.262 387.095 L 203.262 404.98 L 198.612 404.98 L 198.612 380.674 L 205.068 380.674 L 211.736 393.727 L 218.404 380.674 L 224.86 380.674 L 224.86 404.98 L 220.105 404.98 L 220.105 387.13 Z" style=""/>
  <path d="M 410.344 177.482 C 400.955 177.482 393.344 169.871 393.344 160.482 C 393.344 151.093 400.955 143.482 410.344 143.482 L 522.661 143.482 C 531.461 143.224 565.805 143.482 565.805 143.482 C 571.351 143.482 579.843 131.81 570.014 125.737 C 519.228 94.36 509.756 67.036 520.403 60.552 C 530.197 54.587 536.802 60.482 551.598 71.843 C 557.001 75.993 570.164 83.65 575.505 87.778 C 620.432 122.504 702.558 130.106 702.558 221.482 C 702.558 291.311 643.959 306.931 602.491 306.931 L 451.623 306.931 C 442.938 306.931 435.898 299.891 435.898 291.207 C 435.898 282.522 442.938 275.482 451.623 275.482 L 527.654 275.482 L 527.654 275.483 L 530.229 275.483 C 532.99 275.483 535.229 273.244 535.229 270.483 C 535.229 267.722 532.99 265.483 530.229 265.483 L 427.344 265.483 L 427.344 265.482 L 410.344 265.482 C 400.955 265.482 393.344 257.871 393.344 248.482 C 393.344 239.093 400.955 231.482 410.344 231.482 L 427.344 231.482 L 427.344 231.483 L 522.661 231.483 L 522.661 231.482 C 525.419 231.478 527.654 229.241 527.654 226.482 C 527.654 223.723 525.419 221.486 522.661 221.482 L 391.888 221.482 C 382.499 221.482 374.888 213.871 374.888 204.482 C 374.888 195.093 382.499 187.482 391.888 187.482 L 522.661 187.482 C 525.419 187.478 527.654 185.241 527.654 182.482 C 527.654 179.723 525.419 177.486 522.661 177.482 Z" style="fill: rgb(216, 216, 216);"/>
  <g transform="matrix(0.361064, 0, 0, 0.361064, 325.712311, 289.772156)" style="">
    <path style="fill-opacity: 0.75; fill: rgb(216, 216, 216);" d="M 223.558 283.796 C 223.558 272.937 226.582 269.308 235.89 260 C 246.851 249.039 242.939 236.011 249.08 236.011 C 255.221 236.011 251.309 249.039 262.27 260 C 271.578 269.308 274.602 272.937 274.602 283.796 C 274.602 305.281 253.891 309.515 249.08 309.515 C 244.269 309.515 223.558 305.281 223.558 283.796 Z"/>
    <path style="fill-opacity: 0.75; fill: rgb(216, 216, 216);" d="M 306.471 283.796 C 306.471 272.937 309.495 269.308 318.803 260 C 329.764 249.039 325.852 236.011 331.993 236.011 C 338.134 236.011 334.222 249.039 345.183 260 C 354.491 269.308 357.515 272.937 357.515 283.796 C 357.515 305.281 336.804 309.515 331.993 309.515 C 327.182 309.515 306.471 305.281 306.471 283.796 Z"/>
    <path style="fill-opacity: 0.75; fill: rgb(216, 216, 216);" d="M 264.962 203.317 C 264.962 192.458 267.986 188.829 277.294 179.521 C 288.255 168.56 284.343 155.532 290.484 155.532 C 296.625 155.532 292.713 168.56 303.674 179.521 C 312.982 188.829 316.006 192.458 316.006 203.317 C 316.006 224.802 295.295 229.036 290.484 229.036 C 285.673 229.036 264.962 224.802 264.962 203.317 Z"/>
    <path d="M 288.94 488.042 C 279.551 488.042 271.94 480.431 271.94 471.042 C 271.94 461.653 279.551 454.042 288.94 454.042 L 401.257 454.042 C 410.057 453.784 444.401 454.042 444.401 454.042 C 449.947 454.042 458.439 442.37 448.61 436.297 C 397.824 404.92 388.352 377.596 398.999 371.112 C 408.793 365.147 415.398 371.042 430.194 382.403 C 435.597 386.553 448.76 394.21 454.101 398.338 C 499.028 433.064 581.154 440.666 581.154 532.042 C 581.154 601.871 522.555 617.491 481.087 617.491 L 330.219 617.491 C 321.534 617.491 314.494 610.451 314.494 601.767 C 314.494 593.082 321.534 586.042 330.219 586.042 L 406.25 586.042 L 406.25 586.043 L 408.825 586.043 C 411.586 586.043 413.825 583.804 413.825 581.043 C 413.825 578.282 411.586 576.043 408.825 576.043 L 305.94 576.043 L 305.94 576.042 L 288.94 576.042 C 279.551 576.042 271.94 568.431 271.94 559.042 C 271.94 549.653 279.551 542.042 288.94 542.042 L 305.94 542.042 L 305.94 542.043 L 401.257 542.043 L 401.257 542.042 C 404.015 542.038 406.25 539.801 406.25 537.042 C 406.25 534.283 404.015 532.046 401.257 532.042 L 270.484 532.042 C 261.095 532.042 253.484 524.431 253.484 515.042 C 253.484 505.653 261.095 498.042 270.484 498.042 L 401.257 498.042 C 404.015 498.038 406.25 495.801 406.25 493.042 C 406.25 490.283 404.015 488.046 401.257 488.042 Z" style="fill: rgb(216, 216, 216);" transform="matrix(0.898794, 0.438371, -0.438371, 0.898794, 258.404516, -133.033943)"/>
    <path d="M 264.962 354.246 C 264.962 344.857 272.573 337.246 281.962 337.246 L 394.279 337.246 C 403.079 336.988 437.423 337.246 437.423 337.246 C 442.969 337.246 451.461 325.574 441.632 319.501 C 390.846 288.124 381.374 260.8 392.021 254.316 C 401.815 248.351 408.42 254.246 423.216 265.607 C 428.619 269.757 441.782 277.414 447.123 281.542 C 492.05 316.268 574.176 323.87 574.176 415.246 C 574.176 464.933 544.507 487.173 512.452 495.87 L 512.452 489.122 C 536.313 482.166 553.747 460.13 553.747 434.023 C 553.747 407.605 535.895 385.355 511.596 378.681 C 507.812 360.795 491.934 347.372 472.921 347.372 C 454.702 347.372 439.361 359.698 434.783 376.466 C 434.009 376.322 433.212 376.247 432.397 376.247 C 428.829 376.247 425.598 377.685 423.251 380.013 C 416.34 368.504 403.737 360.802 389.335 360.802 C 381.101 360.802 373.454 363.32 367.124 367.627 C 362.539 363.391 356.41 360.802 349.676 360.802 C 341.212 360.802 333.702 364.892 329.016 371.204 L 280.758 371.204 C 271.931 370.586 264.962 363.23 264.962 354.246 Z" style="fill: rgb(216, 216, 216);"/>
  </g>
  <path d="M 86.51 49.993 L 121.352 49.993 C 125.233 49.993 128.379 53.14 128.379 57.021 L 128.379 93.464 C 128.379 95.12 127.036 96.463 125.38 96.463 L 124.345 96.463 C 122.689 96.463 121.346 95.12 121.346 93.464 L 121.346 61.471 C 121.346 59.815 120.003 58.472 118.346 58.472 L 117.311 58.472 C 115.655 58.472 114.312 59.815 114.312 61.471 L 114.312 141.352 C 114.312 143.009 112.969 144.352 111.313 144.352 L 108.97 144.352 C 107.314 144.352 105.971 143.009 105.971 141.352 L 105.971 99.463 C 105.971 97.806 105.057 96.463 103.931 96.463 C 102.805 96.463 101.892 97.806 101.892 99.463 L 101.892 141.352 C 101.892 143.009 100.549 144.352 98.892 144.352 L 96.549 144.352 C 94.893 144.352 93.55 143.009 93.55 141.352 L 93.55 61.471 C 93.55 59.815 92.207 58.472 90.551 58.472 L 89.516 58.472 C 87.86 58.472 86.516 59.815 86.516 61.471 L 86.516 93.464 C 86.516 95.12 85.173 96.463 83.517 96.463 L 82.482 96.463 C 80.826 96.463 79.483 95.12 79.483 93.464 L 79.483 57.021 C 79.483 53.14 82.629 49.993 86.51 49.993 Z M 113.865 36.656 C 113.865 42.142 109.417 46.589 103.931 46.589 C 98.445 46.589 93.998 42.142 93.998 36.656 C 93.998 31.17 98.445 26.723 103.931 26.723 C 109.417 26.723 113.865 31.17 113.865 36.656 Z" style=""/>
</svg>