<svg xmlns="http://www.w3.org/2000/svg" xmlns:xlink="http://www.w3.org/1999/xlink" width="1920" height="256" viewBox="0 0 1920 256"><defs><clipPath id="a"><rect width="1920" height="256" transform="translate(0 3244)" fill="#fff" stroke="#707070" stroke-width="1"/></clipPath><clipPath id="b"><rect width="1441.683" height="1034.749" fill="none"/></clipPath><clipPath id="c"><path d="M254.493-733.507,443.18-189.382,1530.5-566.433l-188.687-544.125Z" transform="translate(-254.493 1110.558)" fill="none"/></clipPath></defs><g transform="translate(0 -3244)" clip-path="url(#a)"><g transform="translate(46.621 4052.29)" opacity="0.21"><g transform="translate(144.626 -1207.86)"><g clip-path="url(#b)"><g transform="translate(91.132 80.709)" clip-path="url(#c)"><g transform="translate(721.489 34.391)"><path d="M-76.337-104.169l-72.328-208.578a.8.8,0,0,0-1.017-.493l-275.125,95.4-22.84-65.867,275.879-95.667-72.421-208.846c11.823-4.1,47.179-16.135,65.945-22.643L-10.461-127.012Z" transform="translate(447.647 610.858)" fill="#bc9053" fill-rule="evenodd"/></g><g transform="translate(0.613 169.602)"><path d="M-41.205-139.983a34.685,34.685,0,0,1-26.65-1.571,34.964,34.964,0,0,1-16.15-46.572L153-676.7-218.792-547.778l-22.84-65.868L211.732-770.859l1-.186a34.736,34.736,0,0,1,23.562,2.472,34.667,34.667,0,0,1,17.448,43.6L252.45-722,15.478-233.437,435.687-379.152,290.431-798.036l65.876-22.844L512.842-369.469a35,35,0,0,1-21.348,44.762Z" transform="translate(241.632 820.88)" fill="#fff" fill-rule="evenodd"/></g><g transform="translate(224.244 976.38)"><path d="M0-5.555l20.1-6.97L56.88,32.943l.31-.108.535-58.408,20.2-7L103.3,40.585,90.55,45l-20.389-58.8-.2.07L68.413,52.682l-8.972,3.111L17.425,4.494l-.209.073L37.6,63.364,25.37,67.607Z" transform="translate(0 32.578)" fill="#fff"/></g><g transform="translate(335.435 958.9)"><path d="M-7.824-8.933l-21.439-25.9-1,33.686Zm-32.012-39.6,11.111-3.853L27.753,9.983,13.07,15.075.532.672-30.778,11.53l-.728,19-14.372,4.984Z" transform="translate(45.879 52.383)" fill="#fff"/></g><g transform="translate(396.126 932.769)"><path d="M-7.994-3.019a16.556,16.556,0,0,0-7.319-2.5,17.983,17.983,0,0,0-8.133.791A19.375,19.375,0,0,0-27.735-2.6,14.6,14.6,0,0,0-31.211.571a10.149,10.149,0,0,0-1.923,4.152,9.112,9.112,0,0,0,.416,4.994A8.64,8.64,0,0,0-30.226,13.6a9.707,9.707,0,0,0,3.841,2.031,20.186,20.186,0,0,0,5.1.665c1.909.033,3.991,0,6.252-.092,2.571-.036,5.265-.013,8.077.1A29.015,29.015,0,0,1,1.2,17.756a19.781,19.781,0,0,1,7.186,4.225,19.5,19.5,0,0,1,5.1,8.291,24.484,24.484,0,0,1,1.424,11.014,22.529,22.529,0,0,1-3.181,9.275A25.809,25.809,0,0,1,4.875,57.8a36.941,36.941,0,0,1-9.61,4.958A39.619,39.619,0,0,1-19.417,64.9a28.131,28.131,0,0,1-13.717-3.989l6.175-11.855a19.641,19.641,0,0,0,9.127,3.43,21,21,0,0,0,9.474-.853,20.258,20.258,0,0,0,4.395-2.172A12.788,12.788,0,0,0-.4,46.088,11.3,11.3,0,0,0,1.5,41.663,10.4,10.4,0,0,0,.936,36.25a8.725,8.725,0,0,0-2.991-4.345A12.51,12.51,0,0,0-6.773,29.84a26.782,26.782,0,0,0-6.143-.594q-3.414.029-7.185.058a66.419,66.419,0,0,1-7.384-.22,22.4,22.4,0,0,1-7.187-1.791,19.2,19.2,0,0,1-6.258-4.368,21.3,21.3,0,0,1-4.624-8.053A20.188,20.188,0,0,1-46.593,4.458,21.612,21.612,0,0,1-42.884-4.3a28.226,28.226,0,0,1,7.1-6.858,38.875,38.875,0,0,1,9.2-4.635A35.907,35.907,0,0,1-14.739-17.7a28.957,28.957,0,0,1,11.88,2.484Z" transform="translate(46.879 17.701)" fill="#fff"/></g><g transform="translate(453.931 912.724)"><path d="M-7.994-3.019a16.556,16.556,0,0,0-7.319-2.5,17.983,17.983,0,0,0-8.133.791A19.357,19.357,0,0,0-27.735-2.6,14.6,14.6,0,0,0-31.211.571a10.149,10.149,0,0,0-1.923,4.152,9.112,9.112,0,0,0,.416,4.994A8.64,8.64,0,0,0-30.226,13.6a9.707,9.707,0,0,0,3.841,2.031,20.186,20.186,0,0,0,5.1.665c1.909.033,3.991,0,6.252-.092,2.562-.034,5.265-.013,8.077.1A29.015,29.015,0,0,1,1.2,17.756a19.781,19.781,0,0,1,7.186,4.225,19.5,19.5,0,0,1,5.1,8.291,24.484,24.484,0,0,1,1.424,11.014,22.529,22.529,0,0,1-3.181,9.275A25.821,25.821,0,0,1,4.875,57.8a36.941,36.941,0,0,1-9.61,4.958A39.619,39.619,0,0,1-19.417,64.9a28.131,28.131,0,0,1-13.717-3.989l6.175-11.855a19.641,19.641,0,0,0,9.127,3.43,21,21,0,0,0,9.474-.853,20.258,20.258,0,0,0,4.395-2.172A12.788,12.788,0,0,0-.4,46.088,11.3,11.3,0,0,0,1.5,41.663,10.4,10.4,0,0,0,.936,36.25a8.725,8.725,0,0,0-2.991-4.345A12.621,12.621,0,0,0-6.773,29.84a27.159,27.159,0,0,0-6.143-.594q-3.414.029-7.185.058a66.419,66.419,0,0,1-7.384-.22,22.568,22.568,0,0,1-7.2-1.788,19.305,19.305,0,0,1-6.25-4.37,21.3,21.3,0,0,1-4.624-8.053A20.179,20.179,0,0,1-46.593,4.458,21.612,21.612,0,0,1-42.884-4.3a28.226,28.226,0,0,1,7.1-6.858,38.875,38.875,0,0,1,9.2-4.635A35.907,35.907,0,0,1-14.739-17.7a28.957,28.957,0,0,1,11.88,2.484Z" transform="translate(46.88 17.701)" fill="#fff"/></g><g transform="translate(509.173 900.144)"><path d="M0-.916,12.855-5.374l25.37,73.163L25.37,72.246Z" transform="translate(0 5.374)" fill="#fff"/></g><g transform="translate(538.258 877.923)"><path d="M0-3.411,47.839-20l3.94,11.363L16.8,3.494,23.248,22.1,56.395,10.607l3.8,10.952L27.045,33.052l7.167,20.67,36.82-12.768,4.013,11.572L25.37,69.752Z" transform="translate(0 20)" fill="#fff"/></g><g transform="translate(600.629 856.719)"><path d="M0-3.323,46.615-19.488l3.94,11.362L16.8,3.581,23.748,23.63,55.57,12.6l3.8,10.96L27.548,34.59,38.225,65.382,25.37,69.839Z" transform="translate(0 19.488)" fill="#fff"/></g><g transform="translate(681.228 836.464)"><path d="M-9.506-21.242l-10.407,3.608-35.83-103.325,10.407-3.608Z" transform="translate(55.742 124.567)" fill="#bc9053"/></g><g transform="translate(732.708 815.408)"><path d="M-7.077-14.272l11.521-4a44.524,44.524,0,0,0,5.183-2.2,18.183,18.183,0,0,0,4.729-3.322,10.9,10.9,0,0,0,2.832-4.673,10.207,10.207,0,0,0-.425-6.344q-2.007-5.787-6.676-6.712c-3.1-.617-7.279-.022-12.511,1.792l-12.033,4.173Zm-11.25-32.443,11.421-3.961q6.426-2.228,8.9-5.979a9.221,9.221,0,0,0,.818-8.5c-1.143-3.3-3.117-5.251-5.9-5.826s-6.635-.01-11.524,1.685l-10.305,3.573ZM-41.5-72.017l28.15-9.761a35.628,35.628,0,0,1,8.41-1.808,21.765,21.765,0,0,1,8.194.738,18.082,18.082,0,0,1,7.04,3.993,18.3,18.3,0,0,1,4.871,7.79,15.958,15.958,0,0,1,.076,11.433,20.361,20.361,0,0,1-7.072,8.944l.07.2a19.956,19.956,0,0,1,13.092,1.481q5.917,2.923,8.506,10.362a21.14,21.14,0,0,1,1.145,10.885,20.036,20.036,0,0,1-3.9,8.705,27.866,27.866,0,0,1-7.535,6.606A49.658,49.658,0,0,1,9.88-7.874l-26.011,9.02Z" transform="translate(41.502 83.692)" fill="#fff"/></g><g transform="translate(798.995 787.507)"><path d="M0-3.411,47.839-20l3.94,11.363L16.8,3.494,23.248,22.1,56.395,10.607l3.8,10.952L27.045,33.052l7.167,20.67,36.82-12.768,4.013,11.572L25.37,69.752Z" transform="translate(0 20)" fill="#fff"/></g><g transform="translate(854.672 749.704)"><path d="M0-7.213l14.07-4.879L46.683,36.794l.2-.07L44.166-22.529l13.257-4.6L91.662,21.2l.2-.07L87.51-37.559l13.668-4.74,4.256,80.484L92.99,42.5l-35.956-49-.2.07,2.1,60.736L46.485,58.628Z" transform="translate(0 42.299)" fill="#fff"/></g><g transform="translate(964.091 726.682)"><path d="M-15.252-9.518A32.179,32.179,0,0,1-13.359,3.2a28.208,28.208,0,0,1-2.987,11.162,28.353,28.353,0,0,1-7.185,8.917,34.12,34.12,0,0,1-10.824,6.008,34.1,34.1,0,0,1-12.227,1.986A29.147,29.147,0,0,1-57.8,28.741a27.328,27.328,0,0,1-9.247-6.919,32.817,32.817,0,0,1-6.338-11.18l-16.054-46.3L-76.6-40.109-60.722,5.667A26.661,26.661,0,0,0-57.7,11.738a16.342,16.342,0,0,0,4.652,4.691,14.838,14.838,0,0,0,6.4,2.308A18.221,18.221,0,0,0-38.4,17.608,18.229,18.229,0,0,0-31.242,13.4a14.925,14.925,0,0,0,3.6-5.775A16.5,16.5,0,0,0-26.9,1.058,26.67,26.67,0,0,0-28.288-5.58L-44.161-51.356l12.855-4.458Z" transform="translate(89.442 55.814)" fill="#fff"/></g><g transform="translate(1040.085 709.464)"><path d="M-7.994-3.019a16.489,16.489,0,0,0-7.319-2.5,17.981,17.981,0,0,0-8.125.788A19.306,19.306,0,0,0-27.726-2.6,14.657,14.657,0,0,0-31.211.571a10.237,10.237,0,0,0-1.923,4.152,9.112,9.112,0,0,0,.416,4.994A8.728,8.728,0,0,0-30.225,13.6a9.806,9.806,0,0,0,3.841,2.031,20.391,20.391,0,0,0,5.1.665c1.909.033,3.991,0,6.252-.092,2.571-.036,5.265-.013,8.085.1A28.961,28.961,0,0,1,1.2,17.756a19.781,19.781,0,0,1,7.186,4.225,19.51,19.51,0,0,1,5.1,8.291,24.5,24.5,0,0,1,1.424,11.014,22.536,22.536,0,0,1-3.181,9.276A25.817,25.817,0,0,1,4.876,57.8a36.855,36.855,0,0,1-9.6,4.954,39.559,39.559,0,0,1-14.682,2.142A28.061,28.061,0,0,1-33.125,60.9l6.167-11.851a19.7,19.7,0,0,0,9.127,3.43,21,21,0,0,0,9.474-.853,20.277,20.277,0,0,0,4.395-2.172A12.9,12.9,0,0,0-.388,46.085a11.5,11.5,0,0,0,1.895-4.424,10.4,10.4,0,0,0-.57-5.411,8.662,8.662,0,0,0-2.991-4.345A12.4,12.4,0,0,0-6.773,29.84a26.782,26.782,0,0,0-6.143-.594c-2.276.019-4.672.042-7.176.056a66.767,66.767,0,0,1-7.393-.217,22.522,22.522,0,0,1-7.187-1.791,19.469,19.469,0,0,1-6.258-4.368,21.3,21.3,0,0,1-4.624-8.053A20.28,20.28,0,0,1-46.593,4.458,21.725,21.725,0,0,1-42.884-4.3a28.322,28.322,0,0,1,7.1-6.858,38.908,38.908,0,0,1,9.2-4.635A35.907,35.907,0,0,1-14.738-17.7,29.075,29.075,0,0,1-2.85-15.22Z" transform="translate(46.875 17.701)" fill="#fff"/></g><g transform="translate(1089.212 683.657)"><path d="M-5.36-4.83-27.488,2.843-31.429-8.519,25.684-28.324l3.94,11.363L7.5-9.288,28.923,52.5,16.068,56.962Z" transform="translate(31.429 28.324)" fill="#fff"/></g><g transform="translate(1176.838 664.601)"><path d="M-9.506-21.242l-10.407,3.608-35.83-103.325,10.407-3.608Z" transform="translate(55.742 124.567)" fill="#bc9053"/></g><g transform="translate(1234.819 638.427)"><path d="M-3.417-10.182A33.126,33.126,0,0,0,2.111-.009a26.53,26.53,0,0,0,8.056,6.76,24.724,24.724,0,0,0,9.811,2.911A25.935,25.935,0,0,0,30.721,8.19a26.31,26.31,0,0,0,9.4-5.513A24.751,24.751,0,0,0,46.073-5.7,26.687,26.687,0,0,0,48.214-16a33.136,33.136,0,0,0-1.956-11.411,32.093,32.093,0,0,0-5.441-9.921,27.54,27.54,0,0,0-7.988-6.727A24.829,24.829,0,0,0,23-47.008a25.988,25.988,0,0,0-10.912,1.473A25.622,25.622,0,0,0,2.66-39.954a25.075,25.075,0,0,0-5.839,8.384A27.368,27.368,0,0,0-5.286-21.341a32.068,32.068,0,0,0,1.869,11.16m-13.97,4.844a43.7,43.7,0,0,1-2.592-16.874A36.92,36.92,0,0,1-16.1-37.036,37.771,37.771,0,0,1-6.508-48.92,45.712,45.712,0,0,1,8.009-56.979a46.489,46.489,0,0,1,16.542-2.712,38.13,38.13,0,0,1,14.984,3.362,36.347,36.347,0,0,1,12.281,9.221,43.708,43.708,0,0,1,8.412,14.857A42.975,42.975,0,0,1,62.744-15.6a37.95,37.95,0,0,1-3.88,15,38.662,38.662,0,0,1-9.573,12.243A44.435,44.435,0,0,1,34.668,19.9a43.711,43.711,0,0,1-16.437,2.525A38.331,38.331,0,0,1,3.226,18.7,38.6,38.6,0,0,1-9.052,9.3,42.971,42.971,0,0,1-17.387-5.337" transform="translate(20.04 59.706)" fill="#fff"/></g><g transform="translate(1314.966 614.068)"><path d="M-6.766-7.29A39.642,39.642,0,0,0-.908-9.848,17.422,17.422,0,0,0,3.62-13.259a9.891,9.891,0,0,0,2.433-4.5,10.3,10.3,0,0,0-.528-5.83,9.807,9.807,0,0,0-3.142-4.753,9.78,9.78,0,0,0-4.607-1.935,15.614,15.614,0,0,0-5.527.236A48.669,48.669,0,0,0-13.635-28.4l-9.376,3.252,7.273,20.972ZM-39.674-31.65-16.1-39.824A53.809,53.809,0,0,1-4.5-42.571a24.818,24.818,0,0,1,9.869.748,18.324,18.324,0,0,1,7.8,4.709,23.548,23.548,0,0,1,5.3,9.039,22.445,22.445,0,0,1,1.306,11,19.388,19.388,0,0,1-3.759,8.772A27.786,27.786,0,0,1,8.371-1.539,52.275,52.275,0,0,1-2.051,3.353l-9.886,3.428,10.5,30.271L-14.3,41.512Z" transform="translate(39.674 42.752)" fill="#fff"/></g><g transform="translate(1402.687 567.732)"><path d="M0-5.555l20.1-6.97L56.88,32.943l.31-.108.535-58.408,20.2-7L103.3,40.585,90.55,45l-20.389-58.8-.2.07L68.413,52.682l-8.972,3.111L17.425,4.494l-.209.073L37.6,63.364,25.37,67.607Z" transform="translate(0 32.578)" fill="#fff"/></g><g transform="translate(1513.878 550.252)"><path d="M-7.824-8.933l-21.439-25.9-1,33.686Zm-32.012-39.6,11.111-3.853L27.753,9.983,13.07,15.075.532.672-30.778,11.53l-.728,19-14.372,4.984Z" transform="translate(45.879 52.383)" fill="#fff"/></g><g transform="translate(1591.058 523.488)"><path d="M-7.824-8.933l-21.439-25.9L-30.272-1.148Zm-32.012-39.6,11.111-3.853L27.753,9.983,13.07,15.075.532.672-30.778,11.53l-.737,19.006-14.364,4.981Z" transform="translate(45.879 52.383)" fill="#fff"/></g><g transform="translate(1632.317 495.323)"><path d="M-5.361-4.83-27.5,2.847l-3.94-11.362L25.683-28.323l3.94,11.362L7.485-9.285,28.913,52.507,16.066,56.962Z" transform="translate(31.439 28.323)" fill="#fff"/></g><g transform="translate(1303.542 112.075)"><path d="M-13.566-52.88l71.66-203.753L-66.966-213.266l-12.588-36.3L95-310.1l13.044,37.617L35.492-69.15l129.68-44.969,12.815,36.955L-.522-15.263Z" transform="translate(79.554 310.095)" fill="#fff"/></g><g transform="translate(1550.355 33.357)"><path d="M0-11.033,154.752-64.7,167.338-28.4,54.16,10.842l20.6,59.394L182,33.049l12.132,34.984L86.887,105.22,109.768,171.2,228.891,129.9l12.815,36.955-160.7,55.726Z" transform="translate(0 64.696)" fill="#fff"/></g><g transform="translate(1784.621 -30.651)"><path d="M-22.71-22.793A127.232,127.232,0,0,0-5.351-30.3a54.021,54.021,0,0,0,14.284-10.5,33.074,33.074,0,0,0,8.121-14.454q2.262-8.351-1.4-18.924-3.315-9.559-9.719-14.186A33.944,33.944,0,0,0-8.331-94.315a48.137,48.137,0,0,0-16.725.257A111.514,111.514,0,0,0-41.842-89.72L-79.468-76.674-56.7-11.008ZM-133.176-97.22-52-125.371a155.186,155.186,0,0,1,33.205-7.644,87.284,87.284,0,0,1,31.5,1.832A62.948,62.948,0,0,1,39.223-117.09Q50.93-106.734,57.345-88.26q8.815,25.42.014,46.391T25.744-6.7l98.3,81.982L73.89,92.675-14.564,12.456-44.911,22.978l34.327,98.99-41.583,14.42Z" transform="translate(133.176 133.66)" fill="#fff"/></g><g transform="translate(2045.844 -132.013)"><path d="M-11.017-32.636A104.652,104.652,0,0,0,6.718-.158a84.771,84.771,0,0,0,25.941,21.5A80.15,80.15,0,0,0,64.3,30.515a84.716,84.716,0,0,0,34.732-4.839A85.982,85.982,0,0,0,129.467,7.918a79.737,79.737,0,0,0,19.338-26.856,85.36,85.36,0,0,0,7.064-32.942,105.066,105.066,0,0,0-6.188-36.481,101.566,101.566,0,0,0-17.441-31.658,87.018,87.018,0,0,0-25.727-21.393,80.005,80.005,0,0,0-31.692-9.338,85.2,85.2,0,0,0-35.285,4.843A83.952,83.952,0,0,0,8.988-127.92a80.473,80.473,0,0,0-18.948,26.9A86.7,86.7,0,0,0-16.911-68.3a101.143,101.143,0,0,0,5.894,35.662M-56.223-16.959Q-65.944-45-64.388-70.875a118,118,0,0,1,12.749-47.482,122.184,122.184,0,0,1,31.128-38.149Q-.556-173.036,26.5-182.417q27.395-9.5,53.464-8.93a123.791,123.791,0,0,1,48.39,10.574,116.613,116.613,0,0,1,39.567,29.34q17.251,19.354,26.966,47.4,9.5,27.395,7.934,53.245A121.786,121.786,0,0,1,190.083-2.76,125.793,125.793,0,0,1,158.97,36.493q-19.961,17.08-47.339,26.589Q84.576,72.464,58.5,71.334A124.2,124.2,0,0,1,10.091,59.656a123.309,123.309,0,0,1-39.58-29.89q-17.23-19.332-26.734-46.726" transform="translate(64.602 191.379)" fill="#fff"/></g><g transform="translate(1753.752 245.495)"><path d="M0-13.714,41.575-28.131,74.3,66.239l109.22-37.874L150.795-66l41.575-14.417,81.008,233.609L231.8,167.6,195.874,63.993,86.654,101.868l35.929,103.61L81.009,219.894Z" transform="translate(0 80.422)" fill="#bc9053"/></g><g transform="translate(2028.617 151.666)"><path d="M-49.206-30.389q7.327,21.132,5.962,40.627a90.521,90.521,0,0,1-9.794,35.739A92.164,92.164,0,0,1-76.386,74.6,111.41,111.41,0,0,1-111.44,93.949a111.358,111.358,0,0,1-39.509,6.5,94.011,94.011,0,0,1-36.23-7.961,87.177,87.177,0,0,1-29.8-22.008q-12.973-14.537-20.31-35.652l-51.259-147.818,41.575-14.417,50.689,146.174a84.257,84.257,0,0,0,9.678,19.377,52.662,52.662,0,0,0,14.98,14.945,47.716,47.716,0,0,0,20.621,7.268q11.781,1.467,26.637-3.694t23.2-13.586A47.871,47.871,0,0,0-89.458,24.6a52.952,52.952,0,0,0,2.5-21.008,84.306,84.306,0,0,0-4.4-21.209L-142.039-163.79l41.575-14.417Z" transform="translate(288.549 178.207)" fill="#bc9053"/></g><g transform="translate(2299.189 108.641)"><path d="M0-2.964,41.575-17.381l81.009,233.609L81.009,230.644Z" transform="translate(0 17.381)" fill="#bc9053"/></g><g transform="translate(2435.535 40.035)"><path d="M-25.851-9.631q-9.565-6.292-23.619-7.892a59.027,59.027,0,0,0-26.251,2.64,63.774,63.774,0,0,0-13.9,6.847A47.259,47.259,0,0,0-100.87,2.152a32.821,32.821,0,0,0-6.293,13.277,28.813,28.813,0,0,0,1.293,16,27.8,27.8,0,0,0,7.986,12.383,31.7,31.7,0,0,0,12.4,6.418A64.954,64.954,0,0,0-69.06,52.3q9.277.095,20.205-.356,12.479-.255,26.128.174A95.764,95.764,0,0,1,3.613,56.673,63.98,63.98,0,0,1,26.751,70.087q10.435,9.33,16.388,26.481,6.521,18.8,4.458,35.231a71.694,71.694,0,0,1-10.415,29.67A83.477,83.477,0,0,1,14.934,184.7a120.38,120.38,0,0,1-31.075,15.952,129.715,129.715,0,0,1-47.452,7.032q-24.69-.863-44.274-12.546l20.079-38.019a63.174,63.174,0,0,0,29.457,10.855q16.75,1.941,30.615-2.867A67.076,67.076,0,0,0-13.5,158.152,41.609,41.609,0,0,0-1.922,147.307a36.39,36.39,0,0,0,6.187-14.151c1.024-5.173.46-10.943-1.756-17.333q-3.2-9.233-9.623-13.854a40.831,40.831,0,0,0-15.208-6.553,87.625,87.625,0,0,0-19.843-1.8q-11.041.137-23.192.274a216.486,216.486,0,0,1-23.871-.6,73.735,73.735,0,0,1-23.2-5.623,62.293,62.293,0,0,1-20.152-13.9q-9.125-9.207-14.838-25.723-6.176-17.811-3.227-33.253a69.655,69.655,0,0,1,12.1-28.037,91.681,91.681,0,0,1,23.031-22.03,126.661,126.661,0,0,1,29.755-14.94A117.661,117.661,0,0,1-47.45-56.474,93.63,93.63,0,0,1-9.08-48.709Z" transform="translate(151.595 56.475)" fill="#bc9053"/></g></g></g></g></g></g></svg>