<?xml version="1.0" encoding="utf-8"?>
<svg viewBox="0 0 800 800" xmlns="http://www.w3.org/2000/svg">
  <path d="M 587.218 595.435 C 593.772 596.997 597.939 595.695 599.718 591.528 L 602.843 561.841 L 605.968 546.997 L 591.906 546.997 L 591.906 535.278 C 595.725 522.952 602.236 513.317 611.437 506.372 L 629.406 496.216 L 648.156 457.153 L 659.093 419.653 L 662.218 404.028 L 662.218 393.091 L 663.781 391.528 L 663.781 380.591 L 665.343 379.028 L 666.906 333.716 L 665.343 332.153 L 665.343 311.841 L 663.781 310.278 L 663.781 299.341 L 659.093 272.778 L 651.281 244.653 L 634.093 205.591 L 634.093 200.122 L 640.343 196.216 C 638.314 178.453 631.283 165.692 619.249 157.935 L 611.437 154.81 L 603.624 159.497 L 573.937 137.622 C 557.377 128.14 539.148 120.328 519.249 114.185 L 462.999 101.685 L 400.499 96.997 L 398.937 98.56 L 373.937 98.56 L 372.374 100.122 L 347.374 101.685 L 286.437 115.747 L 233.312 136.06 C 213.827 144.685 196.379 154.58 180.968 165.747 L 171.593 179.028 L 165.343 193.091 L 160.656 219.653 L 160.656 236.841 L 162.218 238.403 L 162.218 252.466 L 166.124 259.497 L 202.062 267.31 L 204.406 269.653 L 201.281 285.278 L 198.156 332.153 L 187.218 360.278 L 179.406 372.778 L 165.343 407.153 L 148.156 439.966 L 141.906 464.966 L 141.906 488.403 C 144.802 505.82 150.531 520.403 159.093 532.153 C 169.472 547.816 181.712 561.618 195.812 573.56 C 216.389 591.524 240.348 606.107 267.687 617.31 L 297.374 626.685 L 316.124 628.247 L 317.687 629.81 L 337.218 629.81 L 337.218 611.06 L 362.218 609.497 L 362.218 761.416 L 362.209 761.416 L 362.209 768.146 C 245.902 756.19 141.312 689.217 82.1 586.659 C -59.09 342.11 117.398 36.424 399.778 36.424 C 530.832 36.424 651.93 106.34 717.456 219.836 C 823.438 403.401 750.425 621.415 587.99 718.731 L 587.99 710.295 L 587.984 710.295 L 587.218 595.435 Z M 399.778 770.07 C 391.909 770.07 384.076 769.818 376.288 769.319 L 376.288 761.416 L 376.281 761.416 L 376.281 607.359 L 571.593 597.778 L 571.593 719.773 C 571.597 719.771 571.6 719.769 571.604 719.767 L 571.604 727.974 C 521.268 754.653 463.193 770.07 399.778 770.07 Z M 377.062 109.497 L 439.562 109.497 L 441.124 111.06 L 464.562 112.622 L 503.624 120.435 L 534.874 129.81 L 566.124 143.872 C 577.479 149.705 587.114 157.257 595.031 166.528 L 591.124 171.997 L 359.874 359.497 L 312.999 395.435 L 308.312 395.435 L 205.968 348.56 C 208.155 343.507 208.676 335.955 207.531 325.903 L 209.093 324.341 L 209.093 296.216 L 213.781 268.872 L 223.937 268.872 L 225.499 270.435 L 255.187 270.435 L 256.749 271.997 L 325.499 271.997 L 327.062 270.435 L 340.343 270.435 L 338.781 259.497 L 322.374 259.497 L 320.812 261.06 L 225.499 261.06 L 223.937 259.497 L 208.312 259.497 L 206.749 257.935 L 189.562 256.372 L 171.593 247.778 L 171.593 207.153 L 173.156 199.341 C 176.417 186.976 182.406 177.341 191.124 170.435 L 219.249 151.685 L 272.374 129.81 L 330.187 115.747 L 339.562 115.747 L 362.999 111.06 L 375.499 111.06 L 377.062 109.497 Z M 232.718 316.247 L 235.718 324.247 L 236.718 326.247 L 264.718 326.247 L 274.718 349.247 C 278.051 355.914 284.051 359.914 292.718 361.247 C 304.051 362.58 312.385 360.914 317.718 356.247 L 326.718 343.247 L 327.718 318.247 L 325.718 316.247 L 232.718 316.247 Z M 622.374 209.497 L 627.843 216.528 L 640.343 243.091 L 651.281 285.278 L 652.843 307.153 L 654.406 308.716 L 654.406 372.778 L 652.843 374.341 L 652.843 386.841 L 651.281 388.403 L 648.156 416.528 L 640.343 447.778 L 626.281 483.716 L 619.249 490.747 C 610.025 493.502 602.994 498.45 598.156 505.591 L 584.093 529.028 L 579.406 546.997 L 572.374 548.56 L 329.406 561.06 L 329.406 452.466 L 336.437 445.435 L 441.906 352.466 L 440.343 350.903 L 438.781 333.716 L 446.593 311.841 L 456.749 301.685 L 473.937 290.747 L 494.249 289.185 C 510.389 292.316 522.629 299.347 530.968 310.278 L 540.343 336.841 L 540.343 352.466 L 520.031 393.091 L 516.906 427.466 L 508.312 439.185 L 497.374 443.872 L 491.124 443.872 L 479.406 436.841 L 472.374 420.435 L 465.343 420.435 L 465.343 432.153 C 467.24 439.631 471.147 445.1 477.062 448.56 C 481.576 451.858 487.826 453.42 495.812 453.247 L 503.624 451.685 L 523.156 440.747 L 527.843 425.903 L 530.968 391.528 L 548.156 358.716 L 549.718 330.591 L 545.031 314.966 L 526.281 293.091 L 526.281 289.185 L 622.374 209.497 Z" style="fill: rgb(132, 98, 51);"/>
  <line style="stroke: rgb(0, 0, 0);" x1="337.026" y1="610.585" x2="571.431" y2="598.066"/>
</svg>